<svg id="svg8" xmlns="http://www.w3.org/2000/svg" viewBox="0 0 54 54"><defs><style>.cls-1{fill:#eee8d5;fill-opacity:0.98;}.cls-2{fill:#586e75;}.cls-3{fill:#073642;}.cls-4{fill:#eae0c3;}</style></defs><title>spoolman06</title><g id="g6874"><path id="path2" class="cls-1" d="M32,5A27,27,0,1,1,5,32,27,27,0,0,1,32,5Z" transform="translate(-5 -5)"/><path id="path7" class="cls-2" d="M12.46,21a2.14,2.14,0,0,1-.62-3.13h0A26.83,26.83,0,0,1,30,7.35h0A2.13,2.13,0,0,1,32.4,9.44l.15,13.12h0a5.83,5.83,0,0,1-8.8,5.08Z" transform="translate(-5 -5)"/><path id="path8" class="cls-3" d="M15.46,22.69l.41-.67h0A19.21,19.21,0,0,1,32,12.89h.45l.1,9.68h0a5.83,5.83,0,0,1-8.8,5.06Z" transform="translate(-5 -5)"/><path id="path5" class="cls-2" d="M32.52,54.92a2.14,2.14,0,0,1-2.4,2.1h0A26.83,26.83,0,0,1,12,46.54h0a2.13,2.13,0,0,1,.62-3.12l11.29-6.69h0a5.83,5.83,0,0,1,8.8,5.08Z" transform="translate(-5 -5)"/><path id="path6" class="cls-3" d="M32.52,51.46l-.79,0h0a19.21,19.21,0,0,1-16-9.41l-.23-.39,8.33-4.92h0a5.83,5.83,0,0,1,8.79,5.09Z" transform="translate(-5 -5)"/><path id="path3" class="cls-2" d="M51.55,20.49a2.14,2.14,0,0,1,3,1h0a26.83,26.83,0,0,1,0,21h0a2.13,2.13,0,0,1-3,1L40.12,37.08h0a5.83,5.83,0,0,1,0-10.16Z" transform="translate(-5 -5)"/><path id="path4" class="cls-3" d="M48.55,22.22l.37.69h0a19.21,19.21,0,0,1-.16,18.54l-.22.4-8.43-4.76h0a5.83,5.83,0,0,1,0-10.16Z" transform="translate(-5 -5)"/></g><circle id="circle46" class="cls-4" cx="27.67" cy="27.04" r="14.95"/><path class="cls-3" d="M39.09,26.71l-3.72.41a2.71,2.71,0,0,0-.71-1.7,2.07,2.07,0,0,0-1.49-.55A2.52,2.52,0,0,0,31.11,26q-.84,1.09-1.06,4.55a4.49,4.49,0,0,1,3.57-1.7,5.45,5.45,0,0,1,4.12,1.83,6.65,6.65,0,0,1,1.72,4.73,6.78,6.78,0,0,1-1.8,4.94A6.17,6.17,0,0,1,33,42.19a6.2,6.2,0,0,1-5-2.36q-2-2.36-2-7.73t2-7.94a6.58,6.58,0,0,1,5.29-2.43A5.62,5.62,0,0,1,37.18,23,6,6,0,0,1,39.09,26.71ZM30.38,35.1A4.35,4.35,0,0,0,31.24,38a2.53,2.53,0,0,0,2,1A2.24,2.24,0,0,0,35,38.17a4.2,4.2,0,0,0,.71-2.73,4.41,4.41,0,0,0-.77-2.86,2.46,2.46,0,0,0-3.79,0A3.77,3.77,0,0,0,30.38,35.1Z" transform="translate(-5 -5)"/></svg>