<svg id="svg8" xmlns="http://www.w3.org/2000/svg" viewBox="0 0 54 54"><defs><style>.cls-1{fill:#eee8d5;fill-opacity:0.98;}.cls-2{fill:#586e75;}.cls-3{fill:#073642;}.cls-4{fill:#eae0c3;}</style></defs><title>spoolman09</title><g id="g6874"><path id="path2" class="cls-1" d="M32,5A27,27,0,1,1,5,32,27,27,0,0,1,32,5Z" transform="translate(-5 -5)"/><path id="path7" class="cls-2" d="M12.46,21a2.14,2.14,0,0,1-.62-3.13h0A26.83,26.83,0,0,1,30,7.35h0A2.13,2.13,0,0,1,32.4,9.44l.15,13.12h0a5.83,5.83,0,0,1-8.8,5.08Z" transform="translate(-5 -5)"/><path id="path8" class="cls-3" d="M15.46,22.69l.41-.67h0A19.21,19.21,0,0,1,32,12.89h.45l.1,9.68h0a5.83,5.83,0,0,1-8.8,5.06Z" transform="translate(-5 -5)"/><path id="path5" class="cls-2" d="M32.52,54.92a2.14,2.14,0,0,1-2.4,2.1h0A26.83,26.83,0,0,1,12,46.54h0a2.13,2.13,0,0,1,.62-3.12l11.29-6.69h0a5.83,5.83,0,0,1,8.8,5.08Z" transform="translate(-5 -5)"/><path id="path6" class="cls-3" d="M32.52,51.46l-.79,0h0a19.21,19.21,0,0,1-16-9.41l-.23-.39,8.33-4.92h0a5.83,5.83,0,0,1,8.79,5.09Z" transform="translate(-5 -5)"/><path id="path3" class="cls-2" d="M51.55,20.49a2.14,2.14,0,0,1,3,1h0a26.83,26.83,0,0,1,0,21h0a2.13,2.13,0,0,1-3,1L40.12,37.08h0a5.83,5.83,0,0,1,0-10.16Z" transform="translate(-5 -5)"/><path id="path4" class="cls-3" d="M48.55,22.22l.37.69h0a19.21,19.21,0,0,1-.16,18.54l-.22.4-8.43-4.76h0a5.83,5.83,0,0,1,0-10.16Z" transform="translate(-5 -5)"/></g><circle id="circle46" class="cls-4" cx="27.67" cy="27.04" r="14.95"/><path class="cls-3" d="M26.16,37.21l3.72-.41a2.69,2.69,0,0,0,.71,1.68A2.11,2.11,0,0,0,32.1,39a2.48,2.48,0,0,0,2-1.09q.83-1.09,1.07-4.54a4.59,4.59,0,0,1-3.62,1.68,5.41,5.41,0,0,1-4.08-1.83,6.65,6.65,0,0,1-1.72-4.75,6.76,6.76,0,0,1,1.81-4.92,6.15,6.15,0,0,1,4.61-1.87,6.21,6.21,0,0,1,5,2.36q2,2.36,2,7.76t-2,7.93a6.59,6.59,0,0,1-5.3,2.43A5.61,5.61,0,0,1,28,41,6,6,0,0,1,26.16,37.21Zm8.7-8.39A4.39,4.39,0,0,0,34,25.93a2.52,2.52,0,0,0-2-1,2.21,2.21,0,0,0-1.77.84,4.29,4.29,0,0,0-.7,2.75,4.37,4.37,0,0,0,.77,2.85,2.4,2.4,0,0,0,1.91.91,2.38,2.38,0,0,0,1.87-.87A3.82,3.82,0,0,0,34.85,28.82Z" transform="translate(-5 -5)"/></svg>