<svg id="svg8" xmlns="http://www.w3.org/2000/svg" viewBox="0 0 54 54"><defs><style>.cls-1{fill:#eee8d5;fill-opacity:0.98;}.cls-2{fill:#586e75;}.cls-3{fill:#073642;}.cls-4{fill:#eae0c3;}</style></defs><title>spoolman08</title><g id="g6874"><path id="path2" class="cls-1" d="M32,5A27,27,0,1,1,5,32,27,27,0,0,1,32,5Z" transform="translate(-5 -5)"/><path id="path7" class="cls-2" d="M12.46,21a2.14,2.14,0,0,1-.62-3.13h0A26.83,26.83,0,0,1,30,7.35h0A2.13,2.13,0,0,1,32.4,9.44l.15,13.12h0a5.83,5.83,0,0,1-8.8,5.08Z" transform="translate(-5 -5)"/><path id="path8" class="cls-3" d="M15.46,22.69l.41-.67h0A19.21,19.21,0,0,1,32,12.89h.45l.1,9.68h0a5.83,5.83,0,0,1-8.8,5.06Z" transform="translate(-5 -5)"/><path id="path5" class="cls-2" d="M32.52,54.92a2.14,2.14,0,0,1-2.4,2.1h0A26.83,26.83,0,0,1,12,46.54h0a2.13,2.13,0,0,1,.62-3.12l11.29-6.69h0a5.83,5.83,0,0,1,8.8,5.08Z" transform="translate(-5 -5)"/><path id="path6" class="cls-3" d="M32.52,51.46l-.79,0h0a19.21,19.21,0,0,1-16-9.41l-.23-.39,8.33-4.92h0a5.83,5.83,0,0,1,8.79,5.09Z" transform="translate(-5 -5)"/><path id="path3" class="cls-2" d="M51.55,20.49a2.14,2.14,0,0,1,3,1h0a26.83,26.83,0,0,1,0,21h0a2.13,2.13,0,0,1-3,1L40.12,37.08h0a5.83,5.83,0,0,1,0-10.16Z" transform="translate(-5 -5)"/><path id="path4" class="cls-3" d="M48.55,22.22l.37.69h0a19.21,19.21,0,0,1-.16,18.54l-.22.4-8.43-4.76h0a5.83,5.83,0,0,1,0-10.16Z" transform="translate(-5 -5)"/></g><circle id="circle46" class="cls-4" cx="27.67" cy="27.04" r="14.95"/><path class="cls-3" d="M29.37,31a4.3,4.3,0,0,1-2.84-4.14,4.85,4.85,0,0,1,1.57-3.71,6.27,6.27,0,0,1,4.45-1.46A6.29,6.29,0,0,1,37,23.19a4.83,4.83,0,0,1,1.58,3.71,4.38,4.38,0,0,1-.72,2.48,4.59,4.59,0,0,1-2,1.66,5.38,5.38,0,0,1,2.54,2,5.18,5.18,0,0,1,.87,3,6,6,0,0,1-1.77,4.51,6.44,6.44,0,0,1-4.71,1.74,7.12,7.12,0,0,1-4.55-1.44A5.6,5.6,0,0,1,26,36.12a5.75,5.75,0,0,1,.81-3A5.19,5.19,0,0,1,29.37,31Zm.44,4.72a3.53,3.53,0,0,0,.81,2.47,2.64,2.64,0,0,0,2,.89,2.55,2.55,0,0,0,2-.85,3.54,3.54,0,0,0,.78-2.47,3.2,3.2,0,0,0-.79-2.26,2.63,2.63,0,0,0-2-.85,2.4,2.4,0,0,0-2.1,1A3.56,3.56,0,0,0,29.81,35.75Zm.36-8.59A2.41,2.41,0,0,0,30.81,29a2.35,2.35,0,0,0,1.73.64,2.38,2.38,0,0,0,1.75-.65,2.41,2.41,0,0,0,.66-1.8,2.23,2.23,0,0,0-2.37-2.38,2.38,2.38,0,0,0-1.76.66A2.35,2.35,0,0,0,30.16,27.17Z" transform="translate(-5 -5)"/></svg>