<?xml version="1.0" standalone="no"?><!DOCTYPE svg PUBLIC "-//W3C//DTD SVG 1.1//EN" "http://www.w3.org/Graphics/SVG/1.1/DTD/svg11.dtd"><svg t="1731470582851" class="icon" viewBox="0 0 1024 1024" version="1.1" xmlns="http://www.w3.org/2000/svg" p-id="5324" data-darkreader-inline-fill="" xmlns:xlink="http://www.w3.org/1999/xlink" width="64" height="64"><path d="M699.299438 639.989377a25.597875 25.597875 0 0 1 17.918513 7.423384l299.75112 301.542972a25.597875 25.597875 0 0 1 0 35.837025l-25.597875 26.877769a25.597875 25.597875 0 0 1-35.837026 0l-92.152351-92.920287-33.021259 33.021259a25.597875 25.597875 0 0 1-35.581047 0l-1.791851-2.04783a619.468584 619.468584 0 0 1-93.176267-146.163868 373.984959 373.984959 0 0 1-25.597875-137.972549 25.597875 25.597875 0 0 1 25.597875-25.597875zM510.131139 703.984065a191.984065 191.984065 0 1 1 190.704171-191.984065 187.888405 187.888405 0 0 1-183.792745 191.984065z m0-319.973442a127.989377 127.989377 0 1 0 127.989377 127.989377 127.989377 127.989377 0 0 0-127.989377-127.989377z" fill="#55BFBD" p-id="5325" data-darkreader-inline-fill="" style="--darkreader-inline-fill: #348b8a;"></path><path d="M898.194929 550.140834v-76.793626L998.79458 409.608498a29.181578 29.181578 0 0 0 11.007086-6.14349 27.645705 27.645705 0 0 0 1.791851-38.652791l-127.989377-223.98141a33.277238 33.277238 0 0 0-42.748451-12.798938l-102.391502 63.994689A711.108978 711.108978 0 0 0 669.093945 153.629745V28.456134A30.205493 30.205493 0 0 0 637.352579 0.042492H379.070017a30.205493 30.205493 0 0 0-27.901684 31.997345v127.989377a245.739604 245.739604 0 0 0-69.114264 38.396813l-102.391501-63.994689a18.174492 18.174492 0 0 0-3.583703-2.559787 29.437557 29.437557 0 0 0-40.956601 8.959256l-127.989376 223.98141a25.597875 25.597875 0 0 0-6.14349 11.007086A27.389727 27.389727 0 0 0 20.443783 409.608498l102.391501 63.994689v76.793626l-102.391501 63.994689a25.597875 25.597875 0 0 0-11.007087 6.14349 27.133748 27.133748 0 0 0-1.791851 38.652791l127.989377 223.98141A33.277238 33.277238 0 0 0 179.662568 895.968131l102.391501-63.994689a745.66611 745.66611 0 0 0 69.114264 38.396813v121.589908a8.447299 8.447299 0 0 0 0 3.583703A30.205493 30.205493 0 0 0 382.909698 1023.957508h183.536767a290.791864 290.791864 0 0 1-38.908771-63.994689h-112.88663V844.77238a35.069089 35.069089 0 0 0-19.198407-31.997344 409.566006 409.566006 0 0 1-89.080606-51.195751 39.676707 39.676707 0 0 0-37.884856 0L173.00712 819.174505 77.271066 652.788315l95.480075-57.59522h1.791852A23.806024 23.806024 0 0 0 185.806058 563.195751 138.228527 138.228527 0 0 1 179.662568 512c0-19.198407 6.399469-31.997344 6.399468-51.195751v-1.791851a23.550045 23.550045 0 0 0-13.566873-30.205493L77.271066 371.211685 173.00712 204.825495l95.480075 51.195751A40.188664 40.188664 0 0 0 307.651945 256.021246a409.566006 409.566006 0 0 1 89.080606-51.195751 35.325068 35.325068 0 0 0 18.942428-31.997344V64.037181h190.96015v109.046949a56.571305 56.571305 0 0 0 18.942428 38.396813 409.566006 409.566006 0 0 1 89.080606 51.195751 40.188664 40.188664 0 0 0 38.140834 0L847.255157 204.825495l95.224097 166.38619-95.224097 57.59522a49.403899 49.403899 0 0 0-12.798937 31.997344 145.139953 145.139953 0 0 1 6.399469 51.195751c0 16.894598-4.863596 28.66962-6.14349 44.284324" fill="#55BFBD" p-id="5326" data-darkreader-inline-fill="" style="--darkreader-inline-fill: #348b8a;"></path></svg>