<svg id="svg8" xmlns="http://www.w3.org/2000/svg" viewBox="0 0 54 54"><defs><style>.cls-1{fill:#eee8d5;fill-opacity:0.98;}.cls-2{fill:#586e75;}.cls-3{fill:#073642;}.cls-4{fill:#eae0c3;}</style></defs><title>spoolman02</title><g id="g6874"><path id="path2" class="cls-1" d="M32,5A27,27,0,1,1,5,32,27,27,0,0,1,32,5Z" transform="translate(-5 -5)"/><path id="path7" class="cls-2" d="M12.46,21a2.14,2.14,0,0,1-.62-3.13h0A26.83,26.83,0,0,1,30,7.35h0A2.13,2.13,0,0,1,32.4,9.44l.15,13.12h0a5.83,5.83,0,0,1-8.8,5.08Z" transform="translate(-5 -5)"/><path id="path8" class="cls-3" d="M15.46,22.69l.41-.67h0A19.21,19.21,0,0,1,32,12.89h.45l.1,9.68h0a5.83,5.83,0,0,1-8.8,5.06Z" transform="translate(-5 -5)"/><path id="path5" class="cls-2" d="M32.52,54.92a2.14,2.14,0,0,1-2.4,2.1h0A26.83,26.83,0,0,1,12,46.54h0a2.13,2.13,0,0,1,.62-3.12l11.29-6.69h0a5.83,5.83,0,0,1,8.8,5.08Z" transform="translate(-5 -5)"/><path id="path6" class="cls-3" d="M32.52,51.46l-.79,0h0a19.21,19.21,0,0,1-16-9.41l-.23-.39,8.33-4.92h0a5.83,5.83,0,0,1,8.79,5.09Z" transform="translate(-5 -5)"/><path id="path3" class="cls-2" d="M51.55,20.49a2.14,2.14,0,0,1,3,1h0a26.83,26.83,0,0,1,0,21h0a2.13,2.13,0,0,1-3,1L40.12,37.08h0a5.83,5.83,0,0,1,0-10.16Z" transform="translate(-5 -5)"/><path id="path4" class="cls-3" d="M48.55,22.22l.37.69h0a19.21,19.21,0,0,1-.16,18.54l-.22.4-8.43-4.76h0a5.83,5.83,0,0,1,0-10.16Z" transform="translate(-5 -5)"/></g><circle id="circle46" class="cls-4" cx="27.67" cy="27.04" r="14.95"/><path class="cls-3" d="M39,38.28v3.57H25.58A9.27,9.27,0,0,1,26.9,38a25.52,25.52,0,0,1,4.32-4.81,27.26,27.26,0,0,0,3.19-3.28,4.23,4.23,0,0,0,.79-2.35,2.68,2.68,0,0,0-.69-2,2.93,2.93,0,0,0-3.82,0A3.72,3.72,0,0,0,29.86,28L26,27.66a6.28,6.28,0,0,1,2.15-4.55,7.21,7.21,0,0,1,4.51-1.38,6.52,6.52,0,0,1,4.66,1.6,5.25,5.25,0,0,1,1.7,4,6.93,6.93,0,0,1-.49,2.58A10.52,10.52,0,0,1,37,32.44,24.55,24.55,0,0,1,34.51,35q-1.82,1.67-2.3,2.21a6.66,6.66,0,0,0-.79,1.07Z" transform="translate(-5 -5)"/></svg>