<svg id="svg8" xmlns="http://www.w3.org/2000/svg" viewBox="0 0 54 54"><defs><style>.cls-1{fill:#eee8d5;fill-opacity:0.98;}.cls-2{fill:#586e75;}.cls-3{fill:#073642;}.cls-4{fill:#eae0c3;}</style></defs><title>spoolman03</title><g id="g6874"><path id="path2" class="cls-1" d="M32,5A27,27,0,1,1,5,32,27,27,0,0,1,32,5Z" transform="translate(-5 -5)"/><path id="path7" class="cls-2" d="M12.46,21a2.14,2.14,0,0,1-.62-3.13h0A26.83,26.83,0,0,1,30,7.35h0A2.13,2.13,0,0,1,32.4,9.44l.15,13.12h0a5.83,5.83,0,0,1-8.8,5.08Z" transform="translate(-5 -5)"/><path id="path8" class="cls-3" d="M15.46,22.69l.41-.67h0A19.21,19.21,0,0,1,32,12.89h.45l.1,9.68h0a5.83,5.83,0,0,1-8.8,5.06Z" transform="translate(-5 -5)"/><path id="path5" class="cls-2" d="M32.52,54.92a2.14,2.14,0,0,1-2.4,2.1h0A26.83,26.83,0,0,1,12,46.54h0a2.13,2.13,0,0,1,.62-3.12l11.29-6.69h0a5.83,5.83,0,0,1,8.8,5.08Z" transform="translate(-5 -5)"/><path id="path6" class="cls-3" d="M32.52,51.46l-.79,0h0a19.21,19.21,0,0,1-16-9.41l-.23-.39,8.33-4.92h0a5.83,5.83,0,0,1,8.79,5.09Z" transform="translate(-5 -5)"/><path id="path3" class="cls-2" d="M51.55,20.49a2.14,2.14,0,0,1,3,1h0a26.83,26.83,0,0,1,0,21h0a2.13,2.13,0,0,1-3,1L40.12,37.08h0a5.83,5.83,0,0,1,0-10.16Z" transform="translate(-5 -5)"/><path id="path4" class="cls-3" d="M48.55,22.22l.37.69h0a19.21,19.21,0,0,1-.16,18.54l-.22.4-8.43-4.76h0a5.83,5.83,0,0,1,0-10.16Z" transform="translate(-5 -5)"/></g><circle id="circle46" class="cls-4" cx="27.67" cy="27.04" r="14.95"/><path class="cls-3" d="M25.94,36.53l3.72-.45a3.52,3.52,0,0,0,1,2.17,2.71,2.71,0,0,0,3.89-.15,3.5,3.5,0,0,0,.81-2.43,3.26,3.26,0,0,0-.78-2.3,2.49,2.49,0,0,0-1.9-.85,6.7,6.7,0,0,0-1.76.29l.42-3.13A3.37,3.37,0,0,0,33.68,29a2.41,2.41,0,0,0,.82-1.91,2.07,2.07,0,0,0-2.2-2.21,2.32,2.32,0,0,0-1.68.68,3.21,3.21,0,0,0-.85,2L26.23,27a7.91,7.91,0,0,1,1.11-2.91,5,5,0,0,1,2.08-1.71,7,7,0,0,1,3-.62,6,6,0,0,1,4.54,1.8,4.71,4.71,0,0,1,1.41,3.34q0,2.64-2.88,4.21a4.67,4.67,0,0,1,2.75,1.65,4.81,4.81,0,0,1,1,3.1,6,6,0,0,1-1.93,4.5,6.64,6.64,0,0,1-4.8,1.86A6.61,6.61,0,0,1,28,40.63,6.15,6.15,0,0,1,25.94,36.53Z" transform="translate(-5 -5)"/></svg>